<svg width="174" height="26" viewBox="0 0 174 26" fill="none" xmlns="http://www.w3.org/2000/svg">
<path d="M20.1369 25.5737C22.8983 25.5737 25.1842 23.3162 24.6732 20.6025C24.3528 18.9011 23.8679 17.2331 23.2235 15.6239C21.9602 12.4695 20.1087 9.60318 17.7745 7.1889C15.4403 4.77458 12.6692 2.85943 9.61948 1.55281C8.11383 0.907744 6.55481 0.417222 4.96489 0.0858795C2.26154 -0.477499 0 1.81226 0 4.57368V20.5737C0 23.3351 2.23858 25.5737 5 25.5737H20.1369Z" fill="#615DFF"/>
<path d="M13.7013 25.5737C10.9398 25.5737 8.65395 23.3162 9.16502 20.6025C9.48544 18.9011 9.97031 17.2331 10.6147 15.6239C11.878 12.4695 13.7295 9.60318 16.0637 7.1889C18.3979 4.77458 21.169 2.85943 24.2187 1.55281C25.7244 0.907744 27.2834 0.417222 28.8733 0.0858795C31.5767 -0.477499 33.8382 1.81226 33.8382 4.57368V20.5737C33.8382 23.3351 31.5996 25.5737 28.8382 25.5737H13.7013Z" fill="#3DD9EB"/>
<path d="M48.0114 19V7.36364H55.8523V9.39205H50.4716V12.1648H55.4489V14.1932H50.4716V16.9716H55.875V19H48.0114ZM57.8082 19V7.36364H60.2685V12.4943H60.4219L64.6094 7.36364H67.5582L63.2401 12.5739L67.6094 19H64.6662L61.4787 14.2159L60.2685 15.6932V19H57.8082ZM68.3963 9.39205V7.36364H77.9531V9.39205H74.3906V19H71.9588V9.39205H68.3963ZM80.1108 19H77.4744L81.4915 7.36364H84.6619L88.6733 19H86.0369L83.1222 10.0227H83.0312L80.1108 19ZM79.946 14.4261H86.1733V16.3466H79.946V14.4261ZM93.777 19V7.36364H101.618V9.39205H96.2372V12.1648H101.214V14.1932H96.2372V16.9716H101.641V19H93.777ZM105.949 13.9545V19H103.528V10.2727H105.835V11.8125H105.938C106.131 11.3049 106.455 10.9034 106.909 10.608C107.364 10.3087 107.915 10.1591 108.562 10.1591C109.169 10.1591 109.697 10.2917 110.148 10.5568C110.598 10.822 110.949 11.2008 111.199 11.6932C111.449 12.1818 111.574 12.7652 111.574 13.4432V19H109.153V13.875C109.157 13.3409 109.021 12.9242 108.744 12.625C108.468 12.322 108.087 12.1705 107.602 12.1705C107.277 12.1705 106.989 12.2405 106.739 12.3807C106.492 12.5208 106.299 12.7254 106.159 12.9943C106.023 13.2595 105.953 13.5795 105.949 13.9545ZM118.124 10.2727V12.0909H112.868V10.2727H118.124ZM114.061 8.18182H116.482V16.3182C116.482 16.5417 116.516 16.7159 116.584 16.8409C116.652 16.9621 116.747 17.0473 116.868 17.0966C116.993 17.1458 117.137 17.1705 117.3 17.1705C117.413 17.1705 117.527 17.161 117.641 17.142C117.754 17.1193 117.841 17.1023 117.902 17.0909L118.283 18.892C118.161 18.9299 117.991 18.9735 117.771 19.0227C117.552 19.0758 117.285 19.108 116.97 19.1193C116.387 19.142 115.875 19.0644 115.436 18.8864C115 18.7083 114.661 18.4318 114.419 18.0568C114.177 17.6818 114.057 17.2083 114.061 16.6364V8.18182ZM123.584 19.1705C122.686 19.1705 121.913 18.9886 121.266 18.625C120.622 18.2576 120.125 17.7386 119.777 17.0682C119.429 16.3939 119.254 15.5966 119.254 14.6761C119.254 13.7784 119.429 12.9905 119.777 12.3125C120.125 11.6345 120.616 11.1061 121.249 10.7273C121.885 10.3485 122.631 10.1591 123.487 10.1591C124.063 10.1591 124.599 10.2519 125.095 10.4375C125.595 10.6193 126.031 10.8939 126.402 11.2614C126.777 11.6288 127.069 12.0909 127.277 12.6477C127.485 13.2008 127.589 13.8485 127.589 14.5909V15.2557H120.22V13.7557H125.311C125.311 13.4072 125.235 13.0985 125.084 12.8295C124.932 12.5606 124.722 12.3504 124.453 12.1989C124.188 12.0436 123.879 11.9659 123.527 11.9659C123.16 11.9659 122.834 12.0511 122.55 12.2216C122.269 12.3883 122.05 12.6136 121.891 12.8977C121.732 13.178 121.65 13.4905 121.646 13.8352V15.2614C121.646 15.6932 121.726 16.0663 121.885 16.3807C122.048 16.6951 122.277 16.9375 122.572 17.108C122.868 17.2784 123.218 17.3636 123.624 17.3636C123.893 17.3636 124.139 17.3258 124.362 17.25C124.586 17.1742 124.777 17.0606 124.936 16.9091C125.095 16.7576 125.216 16.572 125.3 16.3523L127.538 16.5C127.425 17.0379 127.192 17.5076 126.839 17.9091C126.491 18.3068 126.04 18.6174 125.487 18.8409C124.938 19.0606 124.304 19.1705 123.584 19.1705ZM129.169 19V10.2727H131.516V11.7955H131.607C131.766 11.2538 132.033 10.8447 132.408 10.5682C132.783 10.2879 133.214 10.1477 133.703 10.1477C133.824 10.1477 133.955 10.1553 134.095 10.1705C134.235 10.1856 134.358 10.2064 134.464 10.233V12.3807C134.351 12.3466 134.194 12.3163 133.993 12.2898C133.792 12.2633 133.608 12.25 133.442 12.25C133.086 12.25 132.768 12.3277 132.487 12.483C132.211 12.6345 131.991 12.8466 131.828 13.1193C131.669 13.392 131.589 13.7064 131.589 14.0625V19H129.169ZM135.716 22.2727V10.2727H138.102V11.7386H138.21C138.316 11.5038 138.47 11.2652 138.67 11.0227C138.875 10.7765 139.14 10.572 139.466 10.4091C139.795 10.2424 140.205 10.1591 140.693 10.1591C141.33 10.1591 141.917 10.3258 142.455 10.6591C142.992 10.9886 143.422 11.4867 143.744 12.1534C144.066 12.8163 144.227 13.6477 144.227 14.6477C144.227 15.6212 144.07 16.4432 143.756 17.1136C143.445 17.7803 143.021 18.286 142.483 18.6307C141.949 18.9716 141.35 19.142 140.688 19.142C140.218 19.142 139.818 19.0644 139.489 18.9091C139.163 18.7538 138.896 18.5587 138.688 18.3239C138.479 18.0852 138.32 17.8447 138.21 17.6023H138.136V22.2727H135.716ZM138.085 14.6364C138.085 15.1553 138.157 15.608 138.301 15.9943C138.445 16.3807 138.653 16.6818 138.926 16.8977C139.199 17.1098 139.53 17.2159 139.92 17.2159C140.314 17.2159 140.648 17.108 140.92 16.892C141.193 16.6723 141.4 16.3693 141.54 15.983C141.684 15.5928 141.756 15.1439 141.756 14.6364C141.756 14.1326 141.686 13.6894 141.545 13.3068C141.405 12.9242 141.199 12.625 140.926 12.4091C140.653 12.1932 140.318 12.0852 139.92 12.0852C139.527 12.0852 139.193 12.1894 138.92 12.3977C138.652 12.6061 138.445 12.9015 138.301 13.2841C138.157 13.6667 138.085 14.1174 138.085 14.6364ZM145.841 19V10.2727H148.188V11.7955H148.278C148.438 11.2538 148.705 10.8447 149.08 10.5682C149.455 10.2879 149.886 10.1477 150.375 10.1477C150.496 10.1477 150.627 10.1553 150.767 10.1705C150.907 10.1856 151.03 10.2064 151.136 10.233V12.3807C151.023 12.3466 150.866 12.3163 150.665 12.2898C150.464 12.2633 150.28 12.25 150.114 12.25C149.758 12.25 149.439 12.3277 149.159 12.483C148.883 12.6345 148.663 12.8466 148.5 13.1193C148.341 13.392 148.261 13.7064 148.261 14.0625V19H145.841ZM152.388 19V10.2727H154.808V19H152.388ZM153.604 9.14773C153.244 9.14773 152.935 9.02841 152.678 8.78977C152.424 8.54735 152.297 8.25758 152.297 7.92045C152.297 7.58712 152.424 7.30114 152.678 7.0625C152.935 6.82008 153.244 6.69886 153.604 6.69886C153.964 6.69886 154.27 6.82008 154.524 7.0625C154.782 7.30114 154.911 7.58712 154.911 7.92045C154.911 8.25758 154.782 8.54735 154.524 8.78977C154.27 9.02841 153.964 9.14773 153.604 9.14773ZM164.009 12.7614L161.793 12.8977C161.755 12.7083 161.673 12.5379 161.548 12.3864C161.423 12.2311 161.259 12.108 161.054 12.017C160.853 11.9223 160.613 11.875 160.332 11.875C159.957 11.875 159.641 11.9545 159.384 12.1136C159.126 12.2689 158.997 12.4773 158.997 12.7386C158.997 12.947 159.08 13.1231 159.247 13.267C159.414 13.411 159.7 13.5265 160.105 13.6136L161.685 13.9318C162.533 14.1061 163.166 14.3864 163.582 14.7727C163.999 15.1591 164.207 15.6667 164.207 16.2955C164.207 16.8674 164.039 17.3693 163.702 17.8011C163.368 18.233 162.91 18.5701 162.327 18.8125C161.747 19.0511 161.079 19.1705 160.321 19.1705C159.166 19.1705 158.245 18.9299 157.56 18.4489C156.878 17.964 156.478 17.3049 156.361 16.4716L158.741 16.3466C158.813 16.6989 158.988 16.9678 159.264 17.1534C159.541 17.3352 159.895 17.4261 160.327 17.4261C160.751 17.4261 161.092 17.3447 161.349 17.1818C161.611 17.0152 161.743 16.8011 161.747 16.5398C161.743 16.3201 161.651 16.1402 161.469 16C161.287 15.8561 161.007 15.7462 160.628 15.6705L159.116 15.3693C158.264 15.1989 157.63 14.9034 157.213 14.483C156.8 14.0625 156.594 13.5265 156.594 12.875C156.594 12.3144 156.745 11.8314 157.048 11.4261C157.355 11.0208 157.785 10.7083 158.338 10.4886C158.895 10.2689 159.546 10.1591 160.293 10.1591C161.395 10.1591 162.262 10.392 162.895 10.858C163.531 11.3239 163.902 11.9583 164.009 12.7614ZM169.709 19.1705C168.811 19.1705 168.038 18.9886 167.391 18.625C166.747 18.2576 166.25 17.7386 165.902 17.0682C165.554 16.3939 165.379 15.5966 165.379 14.6761C165.379 13.7784 165.554 12.9905 165.902 12.3125C166.25 11.6345 166.741 11.1061 167.374 10.7273C168.01 10.3485 168.756 10.1591 169.612 10.1591C170.188 10.1591 170.724 10.2519 171.22 10.4375C171.72 10.6193 172.156 10.8939 172.527 11.2614C172.902 11.6288 173.194 12.0909 173.402 12.6477C173.61 13.2008 173.714 13.8485 173.714 14.5909V15.2557H166.345V13.7557H171.436C171.436 13.4072 171.36 13.0985 171.209 12.8295C171.057 12.5606 170.847 12.3504 170.578 12.1989C170.313 12.0436 170.004 11.9659 169.652 11.9659C169.285 11.9659 168.959 12.0511 168.675 12.2216C168.394 12.3883 168.175 12.6136 168.016 12.8977C167.857 13.178 167.775 13.4905 167.771 13.8352V15.2614C167.771 15.6932 167.851 16.0663 168.01 16.3807C168.173 16.6951 168.402 16.9375 168.697 17.108C168.993 17.2784 169.343 17.3636 169.749 17.3636C170.018 17.3636 170.264 17.3258 170.487 17.25C170.711 17.1742 170.902 17.0606 171.061 16.9091C171.22 16.7576 171.341 16.572 171.425 16.3523L173.663 16.5C173.55 17.0379 173.317 17.5076 172.964 17.9091C172.616 18.3068 172.165 18.6174 171.612 18.8409C171.063 19.0606 170.429 19.1705 169.709 19.1705Z" fill="white"/>
</svg>
